<?xml version="1.0" standalone="no"?>
<!DOCTYPE svg PUBLIC "-//W3C//DTD SVG 20010904//EN"
 "http://www.w3.org/TR/2001/REC-SVG-20010904/DTD/svg10.dtd">
<svg version="1.0" xmlns="http://www.w3.org/2000/svg"
 width="750.000000pt" height="421.000000pt" viewBox="0 0 750.000000 421.000000"
 preserveAspectRatio="xMidYMid meet">
<metadata>
Created by potrace 1.15, written by Peter Selinger 2001-2017
</metadata>
<g transform="translate(0.000000,421.000000) scale(0.100000,-0.100000)"
fill="#000000" stroke="none">
<path d="M4720 4207 c0 -2 24 -62 53 -133 50 -123 54 -129 82 -129 27 0 31 6
82 130 29 72 53 131 53 133 0 1 -15 2 -33 2 -31 0 -33 -2 -60 -77 -15 -43 -31
-84 -35 -90 -5 -8 -21 20 -43 75 -33 82 -36 87 -67 90 -17 2 -32 1 -32 -1z"/>
<path d="M5060 4075 l0 -135 105 0 105 0 0 25 c0 24 -2 25 -75 25 l-75 0 0 30
0 30 65 0 65 0 0 30 0 30 -65 0 c-63 0 -65 1 -65 25 0 24 2 25 75 25 73 0 75
1 75 25 l0 25 -105 0 -105 0 0 -135z"/>
<path d="M5350 4075 l0 -135 30 0 c29 0 30 2 30 45 0 40 2 45 23 45 16 0 34
-14 56 -45 27 -38 37 -45 67 -45 19 0 34 3 34 8 -1 4 -16 25 -34 46 l-34 40
29 29 c37 37 39 83 4 121 -23 24 -30 26 -115 26 l-90 0 0 -135z"/>
<path d="M5660 4075 l0 -135 30 0 30 0 0 135 0 135 -30 0 -30 0 0 -135z"/>
<path d="M5820 4075 l0 -135 30 0 c30 0 30 1 30 55 l0 55 65 0 c63 0 65 1 65
25 0 24 -2 25 -67 25 l-68 0 0 30 0 30 73 0 c70 0 72 1 72 25 l0 25 -100 0
-100 0 0 -135z"/>
<path d="M6125 4128 c49 -74 55 -88 55 -135 0 -52 0 -53 30 -53 30 0 30 0 30
57 0 51 5 63 50 130 28 40 50 76 50 78 0 3 -15 5 -32 5 -28 0 -37 -7 -61 -45
-16 -25 -32 -47 -37 -50 -4 -2 -21 18 -38 45 -28 45 -35 50 -67 50 l-35 0 55
-82z"/>
<path d="M6470 4081 c0 -56 3 -101 6 -101 10 0 174 94 174 100 0 5 -149 90
-171 98 -5 2 -9 -41 -9 -97z"/>
<path d="M2740 3900 l0 -50 -95 0 -95 0 0 -55 0 -55 -50 0 -50 0 0 -100 0
-100 -45 0 -45 0 0 45 0 45 -55 0 -55 0 0 -49 0 -50 53 -3 52 -3 3 -47 3 -47
-88 -3 -88 -3 -3 -32 c-3 -31 -6 -33 -43 -33 l-39 0 0 -45 0 -45 -55 0 -55 0
0 -75 0 -75 -44 0 -45 0 -3 -47 c-3 -48 -3 -48 -40 -51 l-38 -3 0 -50 0 -49
-34 0 c-33 0 -38 -5 -84 -82 -71 -119 -226 -409 -263 -494 l-32 -72 -77 96
c-215 269 -458 431 -538 359 -53 -48 -32 -107 93 -252 48 -54 113 -140 146
-190 64 -95 177 -320 225 -445 16 -42 42 -88 61 -106 65 -66 194 -67 248 -2
14 16 25 34 25 39 0 6 25 70 56 142 68 159 166 349 245 474 52 81 59 98 59
143 l0 50 40 0 40 0 0 50 0 50 40 0 40 0 0 54 c0 58 7 66 61 66 29 0 29 1 29
55 l0 55 50 0 50 0 0 50 0 50 40 0 40 0 0 60 0 60 50 0 50 0 0 40 0 40 40 0
40 0 0 104 0 105 48 3 47 3 3 53 3 52 55 0 54 0 0 55 0 56 -57 -3 -58 -3 -3
-47 -3 -48 -45 0 -44 0 0 95 0 95 100 0 100 0 0 49 0 50 48 3 47 3 3 58 3 57
-61 0 -60 0 0 -50z"/>
<path d="M2980 2745 l0 -455 100 0 100 0 2 290 3 290 147 -288 147 -287 105
-3 106 -3 0 456 0 455 -100 0 -100 0 0 -262 c0 -223 -2 -259 -13 -243 -8 11
-58 106 -112 210 -54 105 -111 213 -126 240 l-28 50 -115 3 -116 3 0 -456z"/>
<path d="M4989 3148 c-1 -2 -9 -43 -18 -93 l-16 -90 -90 -5 c-57 -3 -101 -11
-120 -22 -32 -17 -76 -61 -92 -92 -9 -16 -14 -8 -34 48 l-24 66 -62 0 -63 0 0
-335 0 -335 99 0 99 0 4 183 c3 146 7 190 21 222 37 83 103 124 200 125 l57 0
0 -186 c0 -117 5 -202 12 -227 32 -106 153 -151 308 -115 51 12 52 12 45 42
-3 17 -8 50 -12 73 l-6 43 -53 -6 c-84 -10 -84 -11 -84 197 l0 179 70 0 70 0
0 70 0 70 -70 0 -70 0 0 95 0 95 -85 0 c-47 0 -85 -1 -86 -2z"/>
<path d="M3999 2967 c-295 -84 -355 -469 -99 -631 147 -94 329 -66 448 69 112
128 110 327 -4 454 -85 95 -231 140 -345 108z m178 -198 c72 -45 95 -155 47
-230 -28 -44 -88 -78 -139 -79 -45 0 -116 40 -142 79 -40 59 -26 168 27 216
52 47 144 53 207 14z"/>
<path d="M5570 2967 c-112 -32 -185 -94 -233 -196 -26 -55 -31 -77 -31 -141 0
-253 259 -421 488 -317 73 34 140 97 173 166 25 49 28 67 28 151 0 89 -3 99
-34 158 -40 74 -94 125 -165 158 -64 29 -165 38 -226 21z m176 -197 c38 -24
74 -92 74 -141 -1 -51 -34 -116 -72 -139 -130 -79 -291 29 -258 174 12 54 38
87 91 114 52 27 112 24 165 -8z"/>
<path d="M6343 2966 c-49 -16 -102 -47 -128 -76 l-19 -21 -17 43 -17 43 -66 3
-66 3 0 -336 0 -336 103 3 102 3 2 229 c1 228 1 230 25 248 57 44 141 39 167
-10 7 -13 11 -104 11 -246 l0 -226 105 0 105 0 0 219 c0 245 -8 306 -48 371
-49 80 -162 118 -259 86z"/>
<path d="M4277 536 c-50 -19 -74 -41 -88 -83 -26 -80 17 -141 119 -168 81 -22
106 -37 110 -65 8 -54 -71 -66 -156 -24 l-52 26 -24 -29 c-13 -15 -22 -31 -20
-35 3 -4 25 -20 50 -34 61 -36 164 -44 219 -19 47 23 75 68 75 122 0 63 -35
98 -123 124 -87 26 -117 43 -117 68 0 47 75 59 146 23 l41 -21 22 29 c11 16
21 33 21 38 0 14 -94 52 -142 57 -25 3 -59 -1 -81 -9z"/>
<path d="M6280 475 c0 -38 -3 -45 -20 -45 -16 0 -20 -7 -20 -35 0 -28 4 -35
19 -35 18 0 20 -10 23 -111 3 -107 4 -112 31 -135 28 -24 75 -31 125 -18 18 5
22 13 22 44 l0 37 -42 -1 -43 -1 -3 93 -3 92 46 0 c45 0 45 0 45 35 0 35 0 35
-45 35 l-45 0 0 45 0 45 -45 0 -45 0 0 -45z"/>
<path d="M4534 424 c3 -10 35 -86 70 -169 71 -168 73 -192 10 -182 -30 5 -36
2 -50 -25 -8 -16 -13 -33 -9 -36 3 -3 34 -8 68 -10 56 -4 65 -2 88 22 15 14
34 47 44 74 10 26 42 109 71 184 30 75 54 140 54 145 0 4 -20 7 -45 5 -49 -4
-44 4 -99 -157 -24 -70 -25 -70 -36 -40 -69 188 -73 195 -106 195 -18 0 -40 3
-49 7 -14 5 -16 2 -11 -13z"/>
<path d="M5046 419 c-21 -17 -26 -18 -26 -5 0 12 -11 16 -45 16 l-45 0 0 -170
0 -170 45 0 45 0 0 115 c0 102 2 117 20 135 25 25 62 26 83 2 14 -15 17 -41
17 -135 l0 -117 45 0 45 0 0 115 c0 102 2 117 20 135 25 25 62 26 83 2 14 -15
17 -41 17 -135 l0 -117 45 0 45 0 0 130 c0 147 -9 179 -62 206 -40 21 -113 14
-140 -14 l-20 -20 -36 24 c-44 30 -100 32 -136 3z"/>
<path d="M5570 426 c-30 -11 -35 -18 -33 -41 3 -41 12 -44 71 -32 44 9 58 9
80 -4 15 -8 28 -22 30 -31 3 -14 -4 -16 -51 -11 -125 13 -200 -64 -156 -160
24 -52 120 -75 182 -43 23 13 27 13 27 0 0 -10 12 -14 45 -14 l45 0 0 120 c0
140 -12 176 -70 209 -43 24 -115 27 -170 7z"/>
<path d="M6008 424 c-16 -8 -28 -10 -28 -4 0 5 -20 10 -45 10 l-45 0 0 -171 0
-170 43 3 42 3 5 120 c5 115 6 120 31 134 30 17 74 9 84 -16 4 -10 10 -69 13
-130 l5 -113 38 0 39 0 0 138 c0 108 -3 142 -16 160 -34 49 -112 66 -166 36z"/>
<path d="M6593 425 c-17 -7 -46 -33 -62 -56 -27 -36 -31 -51 -31 -104 0 -71
22 -114 79 -152 49 -33 129 -32 188 2 23 14 43 29 43 34 0 4 -11 18 -25 31
-24 22 -26 23 -44 6 -32 -29 -91 -32 -123 -6 -53 41 -39 49 90 52 l117 3 -3
43 c-8 124 -119 195 -229 147z"/>
<path d="M6971 422 c-19 -9 -48 -34 -65 -55 -27 -34 -31 -46 -31 -101 0 -115
71 -182 185 -174 44 3 67 11 95 32 l37 29 -25 25 -25 25 -46 -23 c-45 -21 -46
-21 -83 -3 -86 41 -60 183 33 183 17 0 43 -9 58 -21 l27 -21 26 26 c31 32 26
49 -26 76 -49 25 -115 26 -160 2z"/>
</g>
</svg>
